<?xml version="1.0" encoding="UTF-8" standalone="no"?><svg xmlns="http://www.w3.org/2000/svg" xmlns:xlink="http://www.w3.org/1999/xlink" contentScriptType="application/ecmascript" contentStyleType="text/css" height="241px" preserveAspectRatio="none" style="width:747px;height:241px;" version="1.1" viewBox="0 0 747 241" width="747px" zoomAndPan="magnify"><defs/><g><!--MD5=[a6f11bb19cee6b13000111f5ad685e8b]
cluster Dependencies--><path d="M25,147 L127,147 A4.5,4.5 0 0 1 130,150 L137,166.9688 L506,166.9688 A3,3 0 0 1 509,169.9688 L509,226 A3,3 0 0 1 506,229 L25,229 A3,3 0 0 1 22,226 L22,150 A3,3 0 0 1 25,147 " fill="#FFFFFF" style="stroke: #000000; stroke-width: 1.5;"/><line style="stroke: #000000; stroke-width: 1.5;" x1="22" x2="137" y1="166.9688" y2="166.9688"/><text fill="#000000" font-family="Tahoma, sans-serif" font-size="12" font-weight="bold" lengthAdjust="spacingAndGlyphs" textLength="102" x="26" y="160.1387">Dependencies</text><!--MD5=[f302c0f5ebac8297acedf7c3fabcc7ec]
entity @testing-library--><rect fill="#F8F8F8" height="33.9688" rx="3" ry="3" style="stroke: #383838; stroke-width: 1.0;" width="119" x="373.5" y="179"/><rect fill="#F8F8F8" height="5" style="stroke: #383838; stroke-width: 1.0;" width="10" x="368.5" y="184"/><rect fill="#F8F8F8" height="5" style="stroke: #383838; stroke-width: 1.0;" width="10" x="368.5" y="202.9688"/><text fill="#000000" font-family="Tahoma, sans-serif" font-size="12" lengthAdjust="spacingAndGlyphs" textLength="99" x="383.5" y="200.1387">@testing-library</text><!--MD5=[78147715a61726ca0d0a20352beeced2]
entity ethers--><rect fill="#F8F8F8" height="33.9688" rx="3" ry="3" style="stroke: #383838; stroke-width: 1.0;" width="60" x="300" y="179"/><rect fill="#F8F8F8" height="5" style="stroke: #383838; stroke-width: 1.0;" width="10" x="295" y="184"/><rect fill="#F8F8F8" height="5" style="stroke: #383838; stroke-width: 1.0;" width="10" x="295" y="202.9688"/><text fill="#000000" font-family="Tahoma, sans-serif" font-size="12" lengthAdjust="spacingAndGlyphs" textLength="40" x="310" y="200.1387">ethers</text><!--MD5=[cb3d66c929489a99ecf6c8633ae21583]
entity react--><rect fill="#F8F8F8" height="33.9688" rx="3" ry="3" style="stroke: #383838; stroke-width: 1.0;" width="53" x="136.5" y="179"/><rect fill="#F8F8F8" height="5" style="stroke: #383838; stroke-width: 1.0;" width="10" x="131.5" y="184"/><rect fill="#F8F8F8" height="5" style="stroke: #383838; stroke-width: 1.0;" width="10" x="131.5" y="202.9688"/><text fill="#000000" font-family="Tahoma, sans-serif" font-size="12" lengthAdjust="spacingAndGlyphs" textLength="33" x="146.5" y="200.1387">react</text><!--MD5=[7a87f47ef40d6587eff4ec588325b680]
entity react-dom--><rect fill="#F8F8F8" height="33.9688" rx="3" ry="3" style="stroke: #383838; stroke-width: 1.0;" width="85" x="38.5" y="179"/><rect fill="#F8F8F8" height="5" style="stroke: #383838; stroke-width: 1.0;" width="10" x="33.5" y="184"/><rect fill="#F8F8F8" height="5" style="stroke: #383838; stroke-width: 1.0;" width="10" x="33.5" y="202.9688"/><text fill="#000000" font-family="Tahoma, sans-serif" font-size="12" lengthAdjust="spacingAndGlyphs" textLength="65" x="48.5" y="200.1387">react-dom</text><!--MD5=[88c8d796ce421dfca8961c4b6b1a0364]
entity web-vitals--><rect fill="#F8F8F8" height="33.9688" rx="3" ry="3" style="stroke: #383838; stroke-width: 1.0;" width="84" x="203" y="179"/><rect fill="#F8F8F8" height="5" style="stroke: #383838; stroke-width: 1.0;" width="10" x="198" y="184"/><rect fill="#F8F8F8" height="5" style="stroke: #383838; stroke-width: 1.0;" width="10" x="198" y="202.9688"/><text fill="#000000" font-family="Tahoma, sans-serif" font-size="12" lengthAdjust="spacingAndGlyphs" textLength="64" x="213" y="200.1387">web-vitals</text><!--MD5=[83e5b7f5e8028ac3cde05928e97e849d]
entity _api_service--><rect fill="#F8F8F8" height="33.9688" rx="3" ry="3" style="stroke: #000000; stroke-width: 0.5;" width="99" x="313.5" y="8"/><text fill="#000000" font-family="Tahoma, sans-serif" font-size="12" font-weight="bold" lengthAdjust="spacingAndGlyphs" textLength="79" x="323.5" y="29.1387">api.service</text><ellipse cx="133.9706" cy="85.8774" fill="#F8F8F8" rx="19.9706" ry="12.8774" style="stroke: #383838; stroke-width: 0.5;"/><text fill="#000000" font-family="Tahoma, sans-serif" font-size="12" lengthAdjust="spacingAndGlyphs" textLength="24" x="121.9706" y="89.3618">App</text><!--MD5=[97fb37a75f829f08db933a49eafb8acb]
entity _blockchain_service--><rect fill="#F8F8F8" height="33.9688" rx="3" ry="3" style="stroke: #000000; stroke-width: 0.5;" width="154" x="426" y="8"/><text fill="#000000" font-family="Tahoma, sans-serif" font-size="12" font-weight="bold" lengthAdjust="spacingAndGlyphs" textLength="134" x="436" y="29.1387">blockchain.service</text><!--MD5=[a78e6ddabf787ee140c321cf02657f46]
entity _mint_request_dto--><rect fill="#F8F8F8" height="33.9688" rx="3" ry="3" style="stroke: #000000; stroke-width: 0.5;" width="123" x="309.5" y="69"/><text fill="#000000" font-family="Tahoma, sans-serif" font-size="12" lengthAdjust="spacingAndGlyphs" textLength="103" x="319.5" y="90.1387">mint-request.dto</text><ellipse cx="665.0605" cy="25.2121" fill="#F8F8F8" rx="71.5605" ry="16.7121" style="stroke: #383838; stroke-width: 0.5;"/><text fill="#000000" font-family="Tahoma, sans-serif" font-size="12" font-weight="bold" lengthAdjust="spacingAndGlyphs" textLength="118" x="606.0605" y="28.6965">react-app-env.d</text><ellipse cx="231.8986" cy="85.7797" fill="#F8F8F8" rx="64.3986" ry="15.2797" style="stroke: #383838; stroke-width: 0.5;"/><text fill="#000000" font-family="Tahoma, sans-serif" font-size="12" lengthAdjust="spacingAndGlyphs" textLength="101" x="181.3986" y="89.2641">reportWebVitals</text><ellipse cx="573.1218" cy="85.9244" fill="#F8F8F8" rx="57.6218" ry="13.9244" style="stroke: #383838; stroke-width: 0.5;"/><text fill="#000000" font-family="Tahoma, sans-serif" font-size="12" font-weight="bold" lengthAdjust="spacingAndGlyphs" textLength="84" x="531.1218" y="89.4087">setupTests</text><ellipse cx="80.7635" cy="85.8774" fill="#F8F8F8" rx="19.2635" ry="12.8774" style="stroke: #383838; stroke-width: 0.5;"/><text fill="#000000" font-family="Tahoma, sans-serif" font-size="12" font-weight="bold" lengthAdjust="spacingAndGlyphs" textLength="23" x="69.2635" y="89.3618">src</text><!--MD5=[3fbbcb7cb8ec387c013119f61212455f]
link _api_service to ethers--><path d="M409.152,42.142 C420.946,48.596 432.203,57.345 439,69 C446.613,82.054 446.944,90.146 439,103 C420.191,133.434 393.772,115.267 367,139 C355.915,148.8265 346.715,162.7029 340.262,174.1839 " fill="none" id="_api_service-&gt;ethers" style="stroke: #000000; stroke-width: 1.0;"/><polygon fill="#000000" points="337.839,178.6142,345.6666,172.6368,340.2379,174.2273,338.6474,168.7986,337.839,178.6142" style="stroke: #000000; stroke-width: 1.0;"/><!--MD5=[c6648288d5b802e55b448a038796ba2a]
link _api_service to _mint_request_dto--><path d="M365.186,42.122 C366.086,48.756 367.14,56.535 368.103,63.633 " fill="none" id="_api_service-&gt;_mint_request_dto" style="stroke: #000000; stroke-width: 1.0;"/><polygon fill="#000000" points="368.817,68.897,371.5721,59.4413,368.1455,63.9423,363.6446,60.5157,368.817,68.897" style="stroke: #000000; stroke-width: 1.0;"/><!--MD5=[8b1bc8dce47f6f1c3fdd120c5f75aa32]
link App to react--><path d="M137.214,98.971 C142.068,117.045 151.336,151.561 157.338,173.9133 " fill="none" id="App-&gt;react" style="stroke: #000000; stroke-width: 0.5;"/><polygon fill="#000000" points="158.64,178.7637,160.1693,169.0343,157.3434,173.9347,152.443,171.1088,158.64,178.7637" style="stroke: #000000; stroke-width: 0.5;"/><!--MD5=[b8ca24779d4cc1b67afb1bc16dfc6f91]
link _blockchain_service to ethers--><path d="M495.714,42.06 C487.288,59.107 471.975,85.898 452,103 C429.34,122.401 418.746,120.045 391,131 C380.542,135.129 375.921,132.157 367,139 C355.001,148.2038 345.66,162.4669 339.364,174.2948 " fill="none" id="_blockchain_service-&gt;ethers" style="stroke: #000000; stroke-width: 1.0;"/><polygon fill="#000000" points="337.019,178.8587,344.6901,172.6818,339.3042,174.4115,337.5746,169.0255,337.019,178.8587" style="stroke: #000000; stroke-width: 1.0;"/><!--MD5=[a56f83c86383858b929bb38e826756e8]
link reportWebVitals to web-vitals--><path d="M233.753,101.565 C235.989,120.143 239.874,152.4121 242.441,173.7385 " fill="none" id="reportWebVitals-&gt;web-vitals" style="stroke: #000000; stroke-width: 0.5;"/><polygon fill="#000000" points="243.063,178.9097,245.9587,169.4962,242.4654,173.9455,238.0161,170.4522,243.063,178.9097" style="stroke: #000000; stroke-width: 0.5;"/><!--MD5=[0c9f90bc376a00c15c717601279d2ee0]
link <b>setupTests</b> to @testing-library--><path d="M556.666,99.6 C532.329,118.375 486.363,153.8344 457.844,175.835 " fill="none" id="&lt;b&gt;setupTests&lt;/b&gt;-&gt;@testing-library" style="stroke: #000000; stroke-width: 1.0;"/><polygon fill="#000000" points="453.767,178.9798,463.3361,176.6492,457.7258,175.9256,458.4494,170.3152,453.767,178.9798" style="stroke: #000000; stroke-width: 1.0;"/><!--MD5=[f39319d2be27e673ece5aa4b202a2579]
link <b>src</b> to App--><path d="M100.875,86 C103.4359,86 105.9969,86 108.558,86 " fill="none" id="&lt;b&gt;src&lt;/b&gt;-&gt;App" style="stroke: #000000; stroke-width: 1.0;"/><polygon fill="#000000" points="113.814,86,104.814,82,108.814,86,104.814,90,113.814,86" style="stroke: #000000; stroke-width: 1.0;"/><!--MD5=[a7c433e228a3e00c52264d39ed1ac923]
link <b>src</b> to react--><path d="M91.8704,97.137 C102.3244,107.193 118.231,123.328 130,139 C138.301,150.054 146.214,163.3517 152.209,174.2147 " fill="none" id="&lt;b&gt;src&lt;/b&gt;-&gt;react" style="stroke: #000000; stroke-width: 1.0;"/><polygon fill="#000000" points="154.657,178.7076,153.8644,168.8907,152.2652,174.3168,146.8391,172.7176,154.657,178.7076" style="stroke: #000000; stroke-width: 1.0;"/><!--MD5=[ce44ada2b58232cc0597854728dbbdbd]
link <b>src</b> to react-dom--><path d="M81,99.389 C81,117.547 81,151.633 81,173.8164 " fill="none" id="&lt;b&gt;src&lt;/b&gt;-&gt;react-dom" style="stroke: #000000; stroke-width: 1.0;"/><polygon fill="#000000" points="81,178.9079,85,169.9079,81,173.9079,77,169.9079,81,178.9079" style="stroke: #000000; stroke-width: 1.0;"/><!--MD5=[f1a337901fa5ebf3530ace6eeadcb81b]
link <b>src</b> to reportWebVitals--><path d="M89.8038,74.11 C95.6587,67.25 104.0027,59.259 113.5,55.5 C143.315,43.701 179.166,56.418 203.571,68.843 " fill="none" id="&lt;b&gt;src&lt;/b&gt;-&gt;reportWebVitals" style="stroke: #000000; stroke-width: 1.0;"/><polygon fill="#000000" points="208.294,71.317,202.1769,63.5981,203.8646,68.9973,198.4654,70.6851,208.294,71.317" style="stroke: #000000; stroke-width: 1.0;"/><script type="text/plantuml"><![CDATA[MD5=[373ac6402dc0f23ca85cae7e21c81acf]
@startuml

scale max 1920 width
top to bottom direction

skinparam nodesep 13
skinparam ranksep 27
skinparam monochrome true
skinparam shadowing false
skinparam defaultFontName Tahoma
skinparam defaultFontSize 12
skinparam roundCorner 6
skinparam dpi 150
skinparam arrowColor black
skinparam arrowThickness 0.5
skinparam packageTitleAlignment left

skinparam usecase {
  borderThickness 0.5
}

skinparam rectangle {
  borderThickness 0.5
}

skinparam component {
  borderThickness 1
}


rectangle "<b>api.service</b>" as _api_service
(App)
rectangle "<b>blockchain.service</b>" as _blockchain_service
rectangle "mint-request.dto" as _mint_request_dto
(<b>react-app-env.d</b>)
(reportWebVitals)
(<b>setupTests</b>)
(<b>src</b>)

package "Dependencies" {
  [@testing-library]
  [ethers]
  [react]
  [react-dom]
  [web-vitals]
}

_api_service ----[thickness=1]> [ethers]
_api_service --[thickness=1]> _mint_request_dto
(App) ---> [react]
_blockchain_service ----[thickness=1]> [ethers]
(reportWebVitals) ---> [web-vitals]
(<b>setupTests</b>) ---[thickness=1]> [@testing-library]
(<b>src</b>) -[thickness=1]> (App)
(<b>src</b>) ---[thickness=1]> [react]
(<b>src</b>) ---[thickness=1]> [react-dom]
(<b>src</b>) -[thickness=1]> (reportWebVitals)

@enduml


' View and edit on https://arkit.pro
]]></script></g></svg>